<svg id="visual" viewBox="0 0 900 600" width="900" height="600" xmlns="http://www.w3.org/2000/svg" xmlns:xlink="http://www.w3.org/1999/xlink" version="1.1"><g stroke-width="1" stroke-linejoin="bevel"><path d="M477 302L409 310L390 410Z" fill="#19435d" stroke="#19435d"></path><path d="M390 410L523 384L477 302Z" fill="#246688" stroke="#246688"></path><path d="M600 486L588 401L523 384Z" fill="#112e42" stroke="#112e42"></path><path d="M523 384L568 277L477 302Z" fill="#15384f" stroke="#15384f"></path><path d="M588 401L568 277L523 384Z" fill="#246688" stroke="#246688"></path><path d="M370 182L316 292L409 310Z" fill="#081a28" stroke="#081a28"></path><path d="M370 182L409 310L477 302Z" fill="#1d4e6b" stroke="#1d4e6b"></path><path d="M409 310L316 292L390 410Z" fill="#112e42" stroke="#112e42"></path><path d="M390 410L495 529L523 384Z" fill="#081a28" stroke="#081a28"></path><path d="M568 277L534 223L477 302Z" fill="#297ea6" stroke="#297ea6"></path><path d="M335 538L370 536L390 410Z" fill="#205a7a" stroke="#205a7a"></path><path d="M390 410L370 536L495 529Z" fill="#19435d" stroke="#19435d"></path><path d="M495 529L600 486L523 384Z" fill="#0c2435" stroke="#0c2435"></path><path d="M316 292L262 392L390 410Z" fill="#00101c" stroke="#00101c"></path><path d="M717 220L573 210L568 277Z" fill="#277297" stroke="#277297"></path><path d="M568 277L573 210L534 223Z" fill="#0c2435" stroke="#0c2435"></path><path d="M534 223L370 182L477 302Z" fill="#297ea6" stroke="#297ea6"></path><path d="M690 325L568 277L588 401Z" fill="#15384f" stroke="#15384f"></path><path d="M262 392L335 538L390 410Z" fill="#15384f" stroke="#15384f"></path><path d="M370 536L437 600L495 529Z" fill="#112e42" stroke="#112e42"></path><path d="M465 83L370 182L534 223Z" fill="#112e42" stroke="#112e42"></path><path d="M316 292L216 312L262 392Z" fill="#205a7a" stroke="#205a7a"></path><path d="M370 182L296 202L316 292Z" fill="#15384f" stroke="#15384f"></path><path d="M307 600L437 600L370 536Z" fill="#0c2435" stroke="#0c2435"></path><path d="M495 529L636 600L600 486Z" fill="#205a7a" stroke="#205a7a"></path><path d="M437 600L471 600L495 529Z" fill="#15384f" stroke="#15384f"></path><path d="M296 202L216 312L316 292Z" fill="#205a7a" stroke="#205a7a"></path><path d="M211 512L307 600L335 538Z" fill="#205a7a" stroke="#205a7a"></path><path d="M694 403L690 325L588 401Z" fill="#19435d" stroke="#19435d"></path><path d="M600 486L694 403L588 401Z" fill="#1d4e6b" stroke="#1d4e6b"></path><path d="M721 477L694 403L600 486Z" fill="#00101c" stroke="#00101c"></path><path d="M211 512L335 538L262 392Z" fill="#15384f" stroke="#15384f"></path><path d="M335 538L307 600L370 536Z" fill="#15384f" stroke="#15384f"></path><path d="M216 312L179 407L262 392Z" fill="#1d4e6b" stroke="#1d4e6b"></path><path d="M370 182L319 126L296 202Z" fill="#297ea6" stroke="#297ea6"></path><path d="M296 202L203 211L216 312Z" fill="#1d4e6b" stroke="#1d4e6b"></path><path d="M416 70L319 126L370 182Z" fill="#112e42" stroke="#112e42"></path><path d="M179 407L211 512L262 392Z" fill="#00101c" stroke="#00101c"></path><path d="M618 86L465 83L573 210Z" fill="#0c2435" stroke="#0c2435"></path><path d="M573 210L465 83L534 223Z" fill="#081a28" stroke="#081a28"></path><path d="M636 600L721 477L600 486Z" fill="#19435d" stroke="#19435d"></path><path d="M694 403L771 414L690 325Z" fill="#19435d" stroke="#19435d"></path><path d="M319 126L203 211L296 202Z" fill="#205a7a" stroke="#205a7a"></path><path d="M216 312L126 308L179 407Z" fill="#297ea6" stroke="#297ea6"></path><path d="M471 600L636 600L495 529Z" fill="#00101c" stroke="#00101c"></path><path d="M465 83L416 70L370 182Z" fill="#297ea6" stroke="#297ea6"></path><path d="M810 338L717 220L690 325Z" fill="#205a7a" stroke="#205a7a"></path><path d="M690 325L717 220L568 277Z" fill="#112e42" stroke="#112e42"></path><path d="M812 519L771 414L721 477Z" fill="#205a7a" stroke="#205a7a"></path><path d="M721 477L771 414L694 403Z" fill="#081a28" stroke="#081a28"></path><path d="M717 220L618 86L573 210Z" fill="#00101c" stroke="#00101c"></path><path d="M465 83L421 0L416 70Z" fill="#15384f" stroke="#15384f"></path><path d="M203 211L126 308L216 312Z" fill="#00101c" stroke="#00101c"></path><path d="M179 407L102 491L211 512Z" fill="#15384f" stroke="#15384f"></path><path d="M636 600L702 600L721 477Z" fill="#15384f" stroke="#15384f"></path><path d="M900 405L810 338L771 414Z" fill="#00101c" stroke="#00101c"></path><path d="M771 414L810 338L690 325Z" fill="#0c2435" stroke="#0c2435"></path><path d="M717 220L687 70L618 86Z" fill="#00101c" stroke="#00101c"></path><path d="M126 308L87 413L179 407Z" fill="#0c2435" stroke="#0c2435"></path><path d="M211 512L160 600L307 600Z" fill="#1d4e6b" stroke="#1d4e6b"></path><path d="M87 413L102 491L179 407Z" fill="#19435d" stroke="#19435d"></path><path d="M102 491L160 600L211 512Z" fill="#246688" stroke="#246688"></path><path d="M502 0L421 0L465 83Z" fill="#246688" stroke="#246688"></path><path d="M416 70L293 0L319 126Z" fill="#1d4e6b" stroke="#1d4e6b"></path><path d="M139 96L129 174L203 211Z" fill="#277297" stroke="#277297"></path><path d="M618 86L502 0L465 83Z" fill="#00101c" stroke="#00101c"></path><path d="M203 211L129 174L126 308Z" fill="#19435d" stroke="#19435d"></path><path d="M126 308L0 325L87 413Z" fill="#246688" stroke="#246688"></path><path d="M188 72L203 211L319 126Z" fill="#19435d" stroke="#19435d"></path><path d="M809 165L687 70L717 220Z" fill="#246688" stroke="#246688"></path><path d="M618 86L622 0L502 0Z" fill="#15384f" stroke="#15384f"></path><path d="M702 600L760 600L721 477Z" fill="#081a28" stroke="#081a28"></path><path d="M760 600L812 519L721 477Z" fill="#297ea6" stroke="#297ea6"></path><path d="M293 0L188 72L319 126Z" fill="#0c2435" stroke="#0c2435"></path><path d="M421 0L293 0L416 70Z" fill="#0c2435" stroke="#0c2435"></path><path d="M687 70L622 0L618 86Z" fill="#205a7a" stroke="#205a7a"></path><path d="M810 338L809 165L717 220Z" fill="#205a7a" stroke="#205a7a"></path><path d="M687 70L681 0L622 0Z" fill="#297ea6" stroke="#297ea6"></path><path d="M814 117L809 165L900 112Z" fill="#246688" stroke="#246688"></path><path d="M77 0L139 96L188 72Z" fill="#19435d" stroke="#19435d"></path><path d="M188 72L139 96L203 211Z" fill="#277297" stroke="#277297"></path><path d="M0 161L0 325L126 308Z" fill="#246688" stroke="#246688"></path><path d="M798 0L681 0L687 70Z" fill="#15384f" stroke="#15384f"></path><path d="M293 0L218 0L188 72Z" fill="#0c2435" stroke="#0c2435"></path><path d="M900 264L809 165L810 338Z" fill="#277297" stroke="#277297"></path><path d="M809 165L814 117L687 70Z" fill="#205a7a" stroke="#205a7a"></path><path d="M0 532L70 600L102 491Z" fill="#205a7a" stroke="#205a7a"></path><path d="M102 491L70 600L160 600Z" fill="#081a28" stroke="#081a28"></path><path d="M900 464L771 414L812 519Z" fill="#15384f" stroke="#15384f"></path><path d="M900 464L900 405L771 414Z" fill="#0c2435" stroke="#0c2435"></path><path d="M0 161L126 308L129 174Z" fill="#246688" stroke="#246688"></path><path d="M87 413L0 433L102 491Z" fill="#00101c" stroke="#00101c"></path><path d="M0 325L0 433L87 413Z" fill="#112e42" stroke="#112e42"></path><path d="M900 600L900 464L812 519Z" fill="#112e42" stroke="#112e42"></path><path d="M900 405L900 264L810 338Z" fill="#246688" stroke="#246688"></path><path d="M900 264L900 238L809 165Z" fill="#246688" stroke="#246688"></path><path d="M0 433L0 532L102 491Z" fill="#205a7a" stroke="#205a7a"></path><path d="M0 100L0 161L129 174Z" fill="#277297" stroke="#277297"></path><path d="M0 100L129 174L139 96Z" fill="#081a28" stroke="#081a28"></path><path d="M760 600L900 600L812 519Z" fill="#00101c" stroke="#00101c"></path><path d="M0 532L0 600L70 600Z" fill="#081a28" stroke="#081a28"></path><path d="M900 0L798 0L814 117Z" fill="#205a7a" stroke="#205a7a"></path><path d="M814 117L798 0L687 70Z" fill="#15384f" stroke="#15384f"></path><path d="M900 238L900 112L809 165Z" fill="#0c2435" stroke="#0c2435"></path><path d="M77 0L0 100L139 96Z" fill="#297ea6" stroke="#297ea6"></path><path d="M218 0L77 0L188 72Z" fill="#112e42" stroke="#112e42"></path><path d="M900 112L900 0L814 117Z" fill="#246688" stroke="#246688"></path><path d="M77 0L0 0L0 100Z" fill="#297ea6" stroke="#297ea6"></path></g></svg>