<svg id="visual" viewBox="0 0 900 600" width="900" height="600" xmlns="http://www.w3.org/2000/svg" xmlns:xlink="http://www.w3.org/1999/xlink" version="1.1"><path d="M0 253L82 109L164 145L245 187L327 217L409 145L491 157L573 145L655 175L736 187L818 175L900 139L900 0L818 0L736 0L655 0L573 0L491 0L409 0L327 0L245 0L164 0L82 0L0 0Z" fill="#00cc8e"></path><path d="M0 355L82 163L164 235L245 271L327 253L409 217L491 235L573 199L655 229L736 253L818 229L900 211L900 137L818 173L736 185L655 173L573 143L491 155L409 143L327 215L245 185L164 143L82 107L0 251Z" fill="#00b98a"></path><path d="M0 391L82 211L164 289L245 313L327 373L409 331L491 277L573 295L655 295L736 343L818 349L900 265L900 209L818 227L736 251L655 227L573 197L491 233L409 215L327 251L245 269L164 233L82 161L0 353Z" fill="#00a784"></path><path d="M0 547L82 469L164 457L245 475L327 523L409 523L491 445L573 541L655 481L736 451L818 499L900 487L900 263L818 347L736 341L655 293L573 293L491 275L409 329L327 371L245 311L164 287L82 209L0 389Z" fill="#00957c"></path><path d="M0 601L82 601L164 601L245 601L327 601L409 601L491 601L573 601L655 601L736 601L818 601L900 601L900 485L818 497L736 449L655 479L573 539L491 443L409 521L327 521L245 473L164 455L82 467L0 545Z" fill="#038373"></path></svg>